<svg id="Layer_1" data-name="Layer 1" xmlns="http://www.w3.org/2000/svg" viewBox="0 0 300 210"><defs><style>.cls-1{fill:#fff;}.cls-2,.cls-3,.cls-4,.cls-5{fill:#53b7e8;}.cls-2{opacity:0.87;}.cls-3{opacity:0.56;}.cls-4{opacity:0.24;}.cls-6{fill:#ced5db;}.cls-7{fill:#80caee;}</style></defs><title>No search Results</title><path class="cls-1" d="M346.47,102.39a15,15,0,0,1-14.94,15H262.29a14.95,14.95,0,1,0,0,29.89h.36a15,15,0,0,1,0,29.91H102.5a15,15,0,0,1,0-29.91h33.24a14.95,14.95,0,1,0,0-29.89H21.26a15,15,0,1,1,0-29.91H54.49a14.95,14.95,0,1,0,0-29.89h-.37a15,15,0,0,1,0-29.91H201.2a15,15,0,0,1,0,29.91H181a14.95,14.95,0,1,0,0,29.89h.76a14.44,14.44,0,0,1,1.88.16h0a14.55,14.55,0,0,1,2.21-.16H331.53A15,15,0,0,1,346.47,102.39Z"/><circle class="cls-2" cx="237.4" cy="48.34" r="1"/><circle class="cls-3" cx="120.71" cy="22.74" r="1"/><path class="cls-3" d="M120.71,182a1,1,0,0,1-1,1h-3v3a1,1,0,0,1-2,0v-3h-3a1,1,0,0,1,0-2h3v-3a1,1,0,0,1,2,0v3h3A1,1,0,0,1,120.71,182Z"/><circle class="cls-4" cx="245.56" cy="80.52" r="1.5"/><path class="cls-4" d="M146.37,12.62a1,1,0,0,1-1,1h-3v3a1,1,0,1,1-2,0v-3h-3a1,1,0,0,1,0-2h3v-3a1,1,0,0,1,2,0v3h3A1,1,0,0,1,146.37,12.62Z"/><circle class="cls-2" cx="98.71" cy="194.38" r="1"/><path class="cls-3" d="M43.24,155.36a1,1,0,0,1-1,1h-3v3a1,1,0,0,1-2,0v-3h-3a1,1,0,0,1,0-2h3v-3a1,1,0,0,1,2,0v3h3A1,1,0,0,1,43.24,155.36Z"/><circle class="cls-3" cx="299.92" cy="105.74" r="1.5"/><path class="cls-3" d="M277.55,181.38a1,1,0,0,1-1,1h-3v3a1,1,0,0,1-2,0v-3h-3a1,1,0,0,1,0-2h3v-3a1,1,0,0,1,2,0v3h3A1,1,0,0,1,277.55,181.38Z"/><circle class="cls-2" cx="8.38" cy="145.1" r="1.5"/><path class="cls-4" d="M279,120.74a1,1,0,0,1-1,1h-3v3a1,1,0,1,1-2,0v-3h-3a1,1,0,0,1,0-2h3v-3a1,1,0,0,1,2,0v3h3A1,1,0,0,1,279,120.74Z"/><path class="cls-2" d="M80.8,79a1,1,0,0,1-1,1h-3v3a1,1,0,0,1-2,0V80h-3a1,1,0,0,1,0-2h3V75a1,1,0,0,1,2,0v3h3A1,1,0,0,1,80.8,79Z"/><circle class="cls-2" cx="76.3" cy="41.05" r="1.5"/><circle class="cls-2" cx="83.62" cy="55.62" r="1"/><path class="cls-5" d="M234.83,64.55a1,1,0,0,1-1,1h-3v3a1,1,0,0,1-2,0v-3h-3a1,1,0,0,1,0-2h3v-3a1,1,0,1,1,2,0v3h3A1,1,0,0,1,234.83,64.55Z"/><circle class="cls-3" cx="299" cy="197.02" r="1"/><circle class="cls-4" cx="243.06" cy="31.56" r="1"/><circle class="cls-4" cx="77.26" cy="198.14" r="1"/><rect class="cls-6" x="108.44" y="42.65" width="78.09" height="104.12" rx="8" ry="8"/><path class="cls-6" d="M179.45,41.73a10.33,10.33,0,0,0-5.93-1.85H116.25a10.41,10.41,0,0,0-10.41,10.41v83.3a10.46,10.46,0,0,0,1.87,6,10.41,10.41,0,0,1-4.48-8.56V47.69a10.41,10.41,0,0,1,10.42-10.41h57.26A10.41,10.41,0,0,1,179.45,41.73Z"/><rect class="cls-1" x="117.55" y="53.06" width="59.87" height="5.21" rx="2.6" ry="2.6"/><rect class="cls-1" x="117.55" y="68.68" width="59.87" height="5.21" rx="2.6" ry="2.6"/><rect class="cls-1" x="117.55" y="84.3" width="44.25" height="5.21" rx="2.6" ry="2.6"/><rect class="cls-1" x="117.55" y="99.91" width="31.24" height="5.21" rx="2.6" ry="2.6"/><rect class="cls-1" x="117.55" y="115.53" width="26.03" height="5.21" rx="2.6" ry="2.6"/><rect class="cls-1" x="117.55" y="131.15" width="26.03" height="5.21" rx="2.6" ry="2.6"/><path class="cls-7" d="M161.32,124.28a1.09,1.09,0,0,1-1.07-.86,21.44,21.44,0,0,1-.44-4.28,20.77,20.77,0,0,1,20.74-20.75q.31,0,.63,0l.3,0a1.09,1.09,0,0,1-.1,2.18l-.34,0a4,4,0,0,0-.49,0A18.57,18.57,0,0,0,162.39,123a1.09,1.09,0,0,1-.85,1.29A.82.82,0,0,1,161.32,124.28Z"/><path class="cls-7" d="M184.33,139.51a1.09,1.09,0,0,1-.21-2.16,18.56,18.56,0,0,0,14.5-14,1.09,1.09,0,0,1,2.13.5,20.74,20.74,0,0,1-16.21,15.67Z"/><path class="cls-5" d="M245.47,174.28l-38-33.41-6.25,6.26,33.4,38c2.19,2.19,6.39,1.55,9.37-1.44S247.65,176.47,245.47,174.28Zm-41.85-36.83a29.41,29.41,0,1,0-5.91,5.64l2.11,2.39,6.05-6.06Zm-23.07,5.27a23.58,23.58,0,1,1,23.58-23.58A23.58,23.58,0,0,1,180.55,142.72Z"/></svg>